<!-- Icono principal para Mi Viaje -->
<svg xmlns="http://www.w3.org/2000/svg" viewBox="0 0 512 512" width="512" height="512">
  <!-- Fondo circular -->
  <circle cx="256" cy="256" r="256" fill="#2196F3"/>
  
  <!-- Maleta principal -->
  <rect x="156" y="180" width="200" height="140" rx="12" ry="12" fill="#ffffff" stroke="#1976D2" stroke-width="4"/>
  
  <!-- Asa de la maleta -->
  <rect x="236" y="155" width="40" height="25" rx="12" ry="12" fill="none" stroke="#1976D2" stroke-width="6"/>
  
  <!-- Detalles de la maleta -->
  <rect x="176" y="210" width="160" height="4" fill="#1976D2"/>
  <rect x="176" y="230" width="160" height="4" fill="#1976D2"/>
  <rect x="176" y="250" width="160" height="4" fill="#1976D2"/>
  <rect x="176" y="270" width="160" height="4" fill="#1976D2"/>
  
  <!-- Cerraduras -->
  <rect x="170" y="190" width="12" height="20" rx="2" ry="2" fill="#FF9800"/>
  <rect x="330" y="190" width="12" height="20" rx="2" ry="2" fill="#FF9800"/>
  
  <!-- Avión pequeño en la esquina -->
  <g transform="translate(350, 350) scale(0.8)">
    <path d="M 20 40 L 80 20 L 80 30 L 100 25 L 105 35 L 80 40 L 80 50 L 20 60 Z" fill="#ffffff"/>
    <circle cx="85" cy="32" r="3" fill="#1976D2"/>
  </g>
  
  <!-- Etiqueta de equipaje -->
  <rect x="200" y="340" width="112" height="60" rx="4" ry="4" fill="#ffffff" stroke="#1976D2" stroke-width="2"/>
  <rect x="210" y="350" width="92" height="3" fill="#1976D2"/>
  <rect x="210" y="360" width="70" height="3" fill="#1976D2"/>
  <rect x="210" y="370" width="80" height="3" fill="#1976D2"/>
  <rect x="210" y="380" width="60" height="3" fill="#1976D2"/>
</svg>
